# xmcd
#
# Track frame offsets: 
#        150
#        25777
#        47232
#        71310
#        95807
#        129285
#        144785
#
# Disc length: 2485 seconds
#
# Revision: 2
# Processed by: cddbd v1.5.2PL0 Copyright (c) Steve Scherf et al.
# Submitted via: ExactAudioCopy v0.99pb4
#
DISCID=5609b307
DTITLE=Luther Vandross - Busy Body
DYEAR=1983
DGENRE=R&B
TTITLE0=I Wanted Your Love
TTITLE1=Busy Body
TTITLE2=I'll Let You Slide
TTITLE3=Make Me A Believer
TTITLE4=For The Sweetness Of Your Love
TTITLE5=How Many Times Can We Say Goodbye (Duet With Dionne Warwick)
TTITLE6=Superstar/Until You Come To Me (That's What I'm Gonna Do)
EXTD=
EXTT0=
EXTT1=
EXTT2=
EXTT3=
EXTT4=
EXTT5=
EXTT6=
PLAYORDER=
